<?xml version="1.0"?>
<!-- Generated by SVGo -->
<svg width="90.963mm" height="48.102mm"
     viewBox="0.000 0.000 90.963 48.102"
     xmlns="http://www.w3.org/2000/svg" 
     xmlns:xlink="http://www.w3.org/1999/xlink">
<polygon points="85.962,43.102 5.001,43.102 5.001,5.001 85.962,5.001" style="fill:none;stroke-width:0.050000mm;stroke:black"/>
<polygon points="64.676,26.575 64.676,27.575 63.876,27.575 63.876,30.675 64.676,30.675 64.676,36.475 63.876,36.475 63.876,39.575 64.676,39.575 64.676,40.575 78.676,40.575 78.676,39.575 79.476,39.575 79.476,36.475 78.676,36.475 78.676,30.675 79.476,30.675 79.476,27.575 78.676,27.575 78.676,26.575" style="fill:none;stroke-width:0.050000mm;stroke:black"/>
<polygon points="45.626,26.575 45.626,27.575 44.826,27.575 44.826,30.675 45.626,30.675 45.626,36.475 44.826,36.475 44.826,39.575 45.626,39.575 45.626,40.575 59.626,40.575 59.626,39.575 60.426,39.575 60.426,36.475 59.626,36.475 59.626,30.675 60.426,30.675 60.426,27.575 59.626,27.575 59.626,26.575" style="fill:none;stroke-width:0.050000mm;stroke:black"/>
<polygon points="26.576,26.575 26.576,27.575 25.776,27.575 25.776,30.675 26.576,30.675 26.576,36.475 25.776,36.475 25.776,39.575 26.576,39.575 26.576,40.575 40.576,40.575 40.576,39.575 41.376,39.575 41.376,36.475 40.576,36.475 40.576,30.675 41.376,30.675 41.376,27.575 40.576,27.575 40.576,26.575" style="fill:none;stroke-width:0.050000mm;stroke:black"/>
<polygon points="7.526,26.575 7.526,27.575 6.726,27.575 6.726,30.675 7.526,30.675 7.526,36.475 6.726,36.475 6.726,39.575 7.526,39.575 7.526,40.575 21.526,40.575 21.526,39.575 22.326,39.575 22.326,36.475 21.526,36.475 21.526,30.675 22.326,30.675 22.326,27.575 21.526,27.575 21.526,26.575" style="fill:none;stroke-width:0.050000mm;stroke:black"/>
</svg>
