<?xml version="1.0" encoding="utf-8"?>
<svg viewBox="0 0 500 500" xmlns="http://www.w3.org/2000/svg">
  <polygon points="67.731 6.724 67.731 7.724 66.931 7.724 66.931 10.824 67.731 10.824 67.731 16.624 66.931 16.624 66.931 19.724 67.731 19.724 67.731 20.724 81.731 20.724 81.731 19.724 82.531 19.724 82.531 16.624 81.731 16.624 81.731 10.824 82.531 10.824 82.531 7.724 81.731 7.724 81.731 6.724" style="fill:none;stroke-width:0.050000mm;stroke:black"/>
  <polygon points="48.681 6.724 48.681 7.724 47.881 7.724 47.881 10.824 48.681 10.824 48.681 16.624 47.881 16.624 47.881 19.724 48.681 19.724 48.681 20.724 62.681 20.724 62.681 19.724 63.481 19.724 63.481 16.624 62.681 16.624 62.681 10.824 63.481 10.824 63.481 7.724 62.681 7.724 62.681 6.724" style="fill:none;stroke-width:0.050000mm;stroke:black"/>
  <polygon points="29.631 6.724 29.631 7.724 28.831 7.724 28.831 10.824 29.631 10.824 29.631 16.624 28.831 16.624 28.831 19.724 29.631 19.724 29.631 20.724 43.631 20.724 43.631 19.724 44.431 19.724 44.431 16.624 43.631 16.624 43.631 10.824 44.431 10.824 44.431 7.724 43.631 7.724 43.631 6.724" style="fill:none;stroke-width:0.050000mm;stroke:black"/>
  <polygon points="10.581 6.724 10.581 7.724 9.781 7.724 9.781 10.824 10.581 10.824 10.581 16.624 9.781 16.624 9.781 19.724 10.581 19.724 10.581 20.724 24.581 20.724 24.581 19.724 25.381 19.724 25.381 16.624 24.581 16.624 24.581 10.824 25.381 10.824 25.381 7.724 24.581 7.724 24.581 6.724" style="fill:none;stroke-width:0.050000mm;stroke:black"/>
</svg>